<?xml version="1.0" encoding="utf-8"?>
<!-- Generator: Adobe Illustrator 25.4.1, SVG Export Plug-In . SVG Version: 6.00 Build 0)  -->
<svg version="1.1" id="Layer_1" xmlns="http://www.w3.org/2000/svg" xmlns:xlink="http://www.w3.org/1999/xlink" x="0px" y="0px"
	 viewBox="0 0 158.1 43.2" width="158.1" height="43.2" style="enable-background:new 0 0 158.1 43.2;" xml:space="preserve">
<style type="text/css">
	.st0{fill:#0069D2;}
</style>
<g>
	<g>
		<path class="st0" d="M54.5,14.9h3.3v16.6h-3.3V14.9z"/>
		<path class="st0" d="M68.7,22.3c-0.4-0.6-1.2-1-2.2-1c-1.7,0-2.8,1.1-3,3.4v6.8h-3.1v-8.9l-0.2-2.3v-1.3h2.7l0.2,1.4h0.4
			c0.8-1.1,2.2-1.7,3.8-1.7c1.7,0,3.2,0.7,4.1,1.9c0.7,1,1,2.1,1,4.1v6.8h-3.1V25C69.3,23.8,69.1,22.9,68.7,22.3z"/>
		<path class="st0" d="M82.9,22.3c-0.4-0.6-1.2-1-2.2-1c-1.7,0-2.8,1.1-3,3.4v6.8h-3.1v-8.9l-0.2-2.3v-1.3h2.7l0.2,1.4h0.4
			c0.8-1.1,2.2-1.7,3.8-1.7c1.7,0,3.2,0.7,4.1,1.9c0.7,1,1,2.1,1,4.1v6.8h-3.1V25C83.5,23.8,83.3,22.9,82.9,22.3z"/>
		<path class="st0" d="M88.1,25.1c0-3.9,2.7-6.5,6.6-6.5c3.9,0,6.6,2.7,6.6,6.5c0,3.8-2.7,6.6-6.6,6.6C90.8,31.7,88.1,29,88.1,25.1z
			 M94.7,28.9c2.1,0,3.5-1.5,3.5-3.8c0-2.2-1.4-3.8-3.5-3.8s-3.5,1.5-3.5,3.8C91.2,27.4,92.6,28.9,94.7,28.9z"/>
		<path class="st0" d="M101.7,20.1v-1.2h3l1.9,9.1h0.4l3-9.1h2.2l3.1,9.1h0.4l1.9-9.1h2.9v1.2l-2.7,11.3h-4l-2.5-7.4h-0.4l-2.5,7.4
			h-4L101.7,20.1z"/>
		<path class="st0" d="M130.4,29.9h-0.2c-0.9,1.2-2.4,1.8-4.3,1.8c-2.8,0-4.4-1.4-4.4-3.7c0-1.4,0.6-2.6,1.7-3.2
			c0.8-0.4,1.7-0.7,3.1-0.9l3.7-0.4v-0.2c0-1.7-1-2.4-2.6-2.4c-1.4,0-2.2,0.6-2.7,1.6H122v-1c0.8-1.9,2.7-3,5.5-3
			c3.4,0,5.7,1.7,5.7,4.9l0,4.3l0.2,2.3v1.3h-2.7L130.4,29.9z M126.7,29.4c1.4,0,2.8-0.6,3.3-2.2v-1.4l-3,0.3
			c-0.9,0.1-1.4,0.2-1.8,0.4c-0.5,0.3-0.7,0.8-0.7,1.3C124.5,28.8,125.3,29.4,126.7,29.4z"/>
		<path class="st0" d="M135.3,22.5l-0.2-2.3v-1.3h2.7l0.2,1.4h0.4c0.9-1.3,2.3-1.7,3.7-1.7c0.5,0,1.1,0.1,1.5,0.1v2.8h-1.1
			c-0.4-0.1-0.7-0.1-1.1-0.1c-1.4,0-2.6,0.8-2.9,2.7v7.2h-3.1V22.5z"/>
		<path class="st0" d="M143.9,25.2c0-3.9,2.7-6.6,6.5-6.6c3.4,0,5.8,2,6.3,5.2v2.3H147c0.2,2,1.6,3.2,3.4,3.2c1.3,0,2.3-0.6,2.9-1.6
			h2.8v1.1c-1,1.8-3.1,2.9-5.6,2.9C146.5,31.7,143.9,29.1,143.9,25.2z M153.6,24c-0.1-1.7-1.4-3-3.3-3c-1.8,0-3.2,1.1-3.3,3H153.6z"
			/>
	</g>
	<g>
		<polygon class="st0" points="26.2,1.7 24.8,0.9 5.8,9.7 7.7,30.6 9.1,31.4 9,11.6 		"/>
		<polygon class="st0" points="16.2,1.3 15.2,0.7 1.4,7.1 2.8,22.3 3.8,22.8 3.7,8.5 		"/>
		<g>
			<polygon class="st0" points="27,24.2 11.3,13.3 11.3,32.8 28.1,42.5 			"/>
			<polygon class="st0" points="28.5,22.7 45.5,12.9 28.5,3.1 11.5,12.9 			"/>
			<polygon class="st0" points="29.9,24.2 28.8,42.5 45.6,32.8 45.6,13.6 			"/>
		</g>
	</g>
</g>
</svg>
